# MagicaVoxel @ Ephtracy

# group
o 

# material
mtllib head.mtl
usemtl palette

# normals
vn -1 0 0
vn 1 0 0
vn 0 0 1
vn 0 0 -1
vn 0 -1 0
vn 0 1 0

# texcoords
vt 0.0175781 0.5
vt 0.0214844 0.5
vt 0.0644531 0.5
vt 0.0683594 0.5
vt 0.162109 0.5
vt 0.306641 0.5
vt 0.845703 0.5
vt 0.857422 0.5

# verts
v -0.6 2.2 0.5
v -0.6 2.2 0.4
v -0.6 2.2 0.3
v -0.6 2.2 0.2
v -0.6 2.2 -0.2
v -0.6 2.2 -0.3
v -0.6 2.2 -0.4
v -0.6 2.2 -0.5
v -0.6 2.6 0.5
v -0.6 2.6 0.4
v -0.6 2.6 0.3
v -0.6 2.6 0.2
v -0.6 2.6 -0.2
v -0.6 2.6 -0.3
v -0.6 2.6 -0.4
v -0.6 2.6 -0.5
v -0.5 2 0.6
v -0.5 2 0.1
v -0.5 2 -0.1
v -0.5 2 -0.6
v -0.5 2.1 0.7
v -0.5 2.1 0.6
v -0.5 2.1 0.5
v -0.5 2.1 0.2
v -0.5 2.1 0.1
v -0.5 2.1 -0.1
v -0.5 2.1 -0.2
v -0.5 2.1 -0.5
v -0.5 2.1 -0.6
v -0.5 2.1 -0.7
v -0.5 2.2 0.5
v -0.5 2.2 0.2
v -0.5 2.2 -0.2
v -0.5 2.2 -0.5
v -0.5 2.3 0.4
v -0.5 2.3 0.3
v -0.5 2.3 -0.3
v -0.5 2.3 -0.4
v -0.5 2.4 0.7
v -0.5 2.4 0.5
v -0.5 2.4 0.4
v -0.5 2.4 0.3
v -0.5 2.4 0.2
v -0.5 2.4 -0.2
v -0.5 2.4 -0.3
v -0.5 2.4 -0.4
v -0.5 2.4 -0.5
v -0.5 2.4 -0.7
v -0.4 2 0.1
v -0.4 2 -0.1
v -0.4 2.1 0.5
v -0.4 2.1 0.2
v -0.4 2.1 0.1
v -0.4 2.1 -0.1
v -0.4 2.1 -0.2
v -0.4 2.1 -0.5
v -0.4 2.2 0.5
v -0.4 2.2 0.4
v -0.4 2.2 0.3
v -0.4 2.2 0.2
v -0.4 2.2 -0.2
v -0.4 2.2 -0.3
v -0.4 2.2 -0.4
v -0.4 2.2 -0.5
v -0.4 2.3 0.4
v -0.4 2.3 0.3
v -0.4 2.3 -0.3
v -0.4 2.3 -0.4
v -0.4 2.4 0.6
v -0.4 2.4 0.1
v -0.4 2.4 -0.1
v -0.4 2.4 -0.6
v -0.4 2.5 0.6
v -0.4 2.5 0.5
v -0.4 2.5 0.4
v -0.4 2.5 0.3
v -0.4 2.5 0.2
v -0.4 2.5 0.1
v -0.4 2.5 -0.1
v -0.4 2.5 -0.2
v -0.4 2.5 -0.3
v -0.4 2.5 -0.4
v -0.4 2.5 -0.5
v -0.4 2.5 -0.6
v 0.2 2.2 0.7
v 0.2 2.2 0.6
v 0.2 2.2 -0.6
v 0.2 2.2 -0.7
v 0.2 2.3 0.7
v 0.2 2.3 0.6
v 0.2 2.3 -0.6
v 0.2 2.3 -0.7
v -0.5 2.4 0.5
v -0.5 2.4 0.4
v -0.5 2.4 0.3
v -0.5 2.4 0.2
v -0.5 2.4 -0.2
v -0.5 2.4 -0.3
v -0.5 2.4 -0.4
v -0.5 2.4 -0.5
v -0.5 2.5 0.5
v -0.5 2.5 0.4
v -0.5 2.5 0.3
v -0.5 2.5 0.2
v -0.5 2.5 -0.2
v -0.5 2.5 -0.3
v -0.5 2.5 -0.4
v -0.5 2.5 -0.5
v -0.4 2.2 0.7
v -0.4 2.2 0.6
v -0.4 2.2 -0.6
v -0.4 2.2 -0.7
v -0.4 2.3 0.7
v -0.4 2.3 0.6
v -0.4 2.3 -0.6
v -0.4 2.3 -0.7
v 0.2 2 0.6
v 0.2 2 -0.6
v 0.2 2.1 0.6
v 0.2 2.1 0.1
v 0.2 2.1 -0.1
v 0.2 2.1 -0.6
v 0.2 2.4 0.1
v 0.2 2.4 -0.1
v 0.2 2.5 0.5
v 0.2 2.5 0.4
v 0.2 2.5 0.3
v 0.2 2.5 0.2
v 0.2 2.5 -0.2
v 0.2 2.5 -0.3
v 0.2 2.5 -0.4
v 0.2 2.5 -0.5
v 0.2 2.6 0.5
v 0.2 2.6 0.4
v 0.2 2.6 0.3
v 0.2 2.6 0.2
v 0.2 2.6 -0.2
v 0.2 2.6 -0.3
v 0.2 2.6 -0.4
v 0.2 2.6 -0.5
v 0.3 2.1 0.7
v 0.3 2.1 0.5
v 0.3 2.1 0.3
v 0.3 2.1 0.1
v 0.3 2.1 -0.1
v 0.3 2.1 -0.3
v 0.3 2.1 -0.5
v 0.3 2.1 -0.7
v 0.3 2.2 0.6
v 0.3 2.2 0.5
v 0.3 2.2 0.3
v 0.3 2.2 0.2
v 0.3 2.2 -0.2
v 0.3 2.2 -0.3
v 0.3 2.2 -0.5
v 0.3 2.2 -0.6
v 0.3 2.3 0.6
v 0.3 2.3 0.5
v 0.3 2.3 0.3
v 0.3 2.3 0.2
v 0.3 2.3 -0.2
v 0.3 2.3 -0.3
v 0.3 2.3 -0.5
v 0.3 2.3 -0.6
v 0.3 2.4 0.7
v 0.3 2.4 0.6
v 0.3 2.4 0.5
v 0.3 2.4 0.3
v 0.3 2.4 -0.3
v 0.3 2.4 -0.5
v 0.3 2.4 -0.6
v 0.3 2.4 -0.7
v 0.3 2.5 0.6
v 0.3 2.5 0.1
v 0.3 2.5 -0.1
v 0.3 2.5 -0.6
v 0.7 2.1 0.5
v 0.7 2.1 0.3
v 0.7 2.1 -0.3
v 0.7 2.1 -0.5
v 0.7 2.2 0.6
v 0.7 2.2 0.5
v 0.7 2.2 0.3
v 0.7 2.2 0.2
v 0.7 2.2 -0.2
v 0.7 2.2 -0.3
v 0.7 2.2 -0.5
v 0.7 2.2 -0.6
v 0.7 2.3 0.6
v 0.7 2.3 0.5
v 0.7 2.3 0.3
v 0.7 2.3 0.2
v 0.7 2.3 -0.2
v 0.7 2.3 -0.3
v 0.7 2.3 -0.5
v 0.7 2.3 -0.6
v 0.8 2.2 0.5
v 0.8 2.2 0.3
v 0.8 2.2 -0.3
v 0.8 2.2 -0.5
v 0.8 2.4 0.5
v 0.8 2.4 0.3
v 0.8 2.4 -0.3
v 0.8 2.4 -0.5
v -0.5 2.1 0.7
v -0.5 2.4 0.7
v -0.4 2.2 0.7
v -0.4 2.3 0.7
v 0.2 2.2 0.7
v 0.2 2.3 0.7
v 0.3 2.1 0.7
v 0.3 2.4 0.7
v -0.5 2 0.6
v -0.5 2.1 0.6
v -0.4 2.2 0.6
v -0.4 2.3 0.6
v -0.4 2.4 0.6
v -0.4 2.5 0.6
v 0.2 2 0.6
v 0.2 2.1 0.6
v 0.2 2.2 0.6
v 0.2 2.3 0.6
v 0.3 2.2 0.6
v 0.3 2.3 0.6
v 0.3 2.4 0.6
v 0.3 2.5 0.6
v 0.7 2.2 0.6
v 0.7 2.3 0.6
v -0.6 2.2 0.5
v -0.6 2.6 0.5
v -0.5 2.2 0.5
v -0.5 2.4 0.5
v -0.5 2.5 0.5
v -0.4 2.5 0.5
v 0.2 2.5 0.5
v 0.2 2.6 0.5
v 0.3 2.1 0.5
v 0.3 2.2 0.5
v 0.3 2.3 0.5
v 0.3 2.4 0.5
v 0.7 2.1 0.5
v 0.7 2.2 0.5
v 0.7 2.3 0.5
v 0.8 2.2 0.5
v 0.8 2.4 0.5
v -0.6 2.2 0.3
v -0.6 2.6 0.3
v -0.5 2.3 0.3
v -0.5 2.4 0.3
v -0.5 2.5 0.3
v -0.4 2.2 0.3
v -0.4 2.3 0.3
v -0.4 2.5 0.3
v 0.2 2.5 0.3
v 0.2 2.6 0.3
v -0.5 2.1 0.2
v -0.5 2.2 0.2
v -0.4 2.1 0.2
v -0.4 2.2 0.2
v -0.5 2 -0.1
v -0.5 2.1 -0.1
v -0.4 2 -0.1
v -0.4 2.1 -0.1
v -0.4 2.4 -0.1
v -0.4 2.5 -0.1
v -0.2 2.4 -0.1
v -0.2 2.5 -0.1
v -5.96046e-008 2.4 -0.1
v -5.96046e-008 2.5 -0.1
v 0.2 2.1 -0.1
v 0.2 2.4 -0.1
v 0.3 2.1 -0.1
v 0.3 2.5 -0.1
v -0.6 2.2 -0.2
v -0.6 2.6 -0.2
v -0.5 2.2 -0.2
v -0.5 2.4 -0.2
v -0.5 2.5 -0.2
v -0.4 2.5 -0.2
v -0.2 2.5 -0.2
v -5.96046e-008 2.5 -0.2
v 0.2 2.5 -0.2
v 0.2 2.6 -0.2
v 0.3 2.2 -0.2
v 0.3 2.3 -0.2
v 0.7 2.2 -0.2
v 0.7 2.3 -0.2
v 0.3 2.1 -0.3
v 0.3 2.2 -0.3
v 0.3 2.3 -0.3
v 0.3 2.4 -0.3
v 0.7 2.1 -0.3
v 0.7 2.2 -0.3
v 0.7 2.3 -0.3
v 0.8 2.2 -0.3
v 0.8 2.4 -0.3
v -0.6 2.2 -0.4
v -0.6 2.6 -0.4
v -0.5 2.3 -0.4
v -0.5 2.4 -0.4
v -0.5 2.5 -0.4
v -0.4 2.2 -0.4
v -0.4 2.3 -0.4
v -0.4 2.5 -0.4
v 0.2 2.5 -0.4
v 0.2 2.6 -0.4
v -0.5 2.1 -0.5
v -0.5 2.2 -0.5
v -0.4 2.1 -0.5
v -0.4 2.2 -0.5
v -0.5 2.1 0.5
v -0.5 2.2 0.5
v -0.4 2.1 0.5
v -0.4 2.2 0.5
v -0.6 2.2 0.4
v -0.6 2.6 0.4
v -0.5 2.3 0.4
v -0.5 2.4 0.4
v -0.5 2.5 0.4
v -0.4 2.2 0.4
v -0.4 2.3 0.4
v -0.4 2.5 0.4
v 0.2 2.5 0.4
v 0.2 2.6 0.4
v 0.3 2.1 0.3
v 0.3 2.2 0.3
v 0.3 2.3 0.3
v 0.3 2.4 0.3
v 0.7 2.1 0.3
v 0.7 2.2 0.3
v 0.7 2.3 0.3
v 0.8 2.2 0.3
v 0.8 2.4 0.3
v -0.6 2.2 0.2
v -0.6 2.6 0.2
v -0.5 2.2 0.2
v -0.5 2.4 0.2
v -0.5 2.5 0.2
v -0.4 2.5 0.2
v -0.2 2.5 0.2
v -5.96046e-008 2.5 0.2
v 0.2 2.5 0.2
v 0.2 2.6 0.2
v 0.3 2.2 0.2
v 0.3 2.3 0.2
v 0.7 2.2 0.2
v 0.7 2.3 0.2
v -0.5 2 0.1
v -0.5 2.1 0.1
v -0.4 2 0.1
v -0.4 2.1 0.1
v -0.4 2.4 0.1
v -0.4 2.5 0.1
v -0.2 2.4 0.1
v -0.2 2.5 0.1
v -5.96046e-008 2.4 0.1
v -5.96046e-008 2.5 0.1
v 0.2 2.1 0.1
v 0.2 2.4 0.1
v 0.3 2.1 0.1
v 0.3 2.5 0.1
v -0.5 2.1 -0.2
v -0.5 2.2 -0.2
v -0.4 2.1 -0.2
v -0.4 2.2 -0.2
v -0.6 2.2 -0.3
v -0.6 2.6 -0.3
v -0.5 2.3 -0.3
v -0.5 2.4 -0.3
v -0.5 2.5 -0.3
v -0.4 2.2 -0.3
v -0.4 2.3 -0.3
v -0.4 2.5 -0.3
v 0.2 2.5 -0.3
v 0.2 2.6 -0.3
v -0.6 2.2 -0.5
v -0.6 2.6 -0.5
v -0.5 2.2 -0.5
v -0.5 2.4 -0.5
v -0.5 2.5 -0.5
v -0.4 2.5 -0.5
v 0.2 2.5 -0.5
v 0.2 2.6 -0.5
v 0.3 2.1 -0.5
v 0.3 2.2 -0.5
v 0.3 2.3 -0.5
v 0.3 2.4 -0.5
v 0.7 2.1 -0.5
v 0.7 2.2 -0.5
v 0.7 2.3 -0.5
v 0.8 2.2 -0.5
v 0.8 2.4 -0.5
v -0.5 2 -0.6
v -0.5 2.1 -0.6
v -0.4 2.2 -0.6
v -0.4 2.3 -0.6
v -0.4 2.4 -0.6
v -0.4 2.5 -0.6
v 0.2 2 -0.6
v 0.2 2.1 -0.6
v 0.2 2.2 -0.6
v 0.2 2.3 -0.6
v 0.3 2.2 -0.6
v 0.3 2.3 -0.6
v 0.3 2.4 -0.6
v 0.3 2.5 -0.6
v 0.7 2.2 -0.6
v 0.7 2.3 -0.6
v -0.5 2.1 -0.7
v -0.5 2.4 -0.7
v -0.4 2.2 -0.7
v -0.4 2.3 -0.7
v 0.2 2.2 -0.7
v 0.2 2.3 -0.7
v 0.3 2.1 -0.7
v 0.3 2.4 -0.7
v -0.5 2 0.6
v 0.2 2 0.6
v -0.2 2 0.3
v -5.96046e-008 2 0.3
v -0.5 2 0.1
v -0.4 2 0.1
v -0.5 2 -0.1
v -0.4 2 -0.1
v -0.2 2 -0.3
v -5.96046e-008 2 -0.3
v -0.5 2 -0.6
v 0.2 2 -0.6
v -0.5 2.1 0.7
v 0.3 2.1 0.7
v -0.5 2.1 0.6
v 0.2 2.1 0.6
v 0.3 2.1 0.5
v 0.7 2.1 0.5
v 0.3 2.1 0.3
v 0.7 2.1 0.3
v -0.5 2.1 0.1
v -0.4 2.1 0.1
v 0.2 2.1 0.1
v 0.3 2.1 0.1
v -0.5 2.1 -0.1
v -0.4 2.1 -0.1
v 0.2 2.1 -0.1
v 0.3 2.1 -0.1
v 0.3 2.1 -0.3
v 0.7 2.1 -0.3
v 0.3 2.1 -0.5
v 0.7 2.1 -0.5
v -0.5 2.1 -0.6
v 0.2 2.1 -0.6
v -0.5 2.1 -0.7
v 0.3 2.1 -0.7
v 0.3 2.2 0.6
v 0.7 2.2 0.6
v -0.6 2.2 0.5
v -0.5 2.2 0.5
v -0.4 2.2 0.5
v 0.3 2.2 0.5
v 0.7 2.2 0.5
v 0.8 2.2 0.5
v -0.6 2.2 0.4
v -0.4 2.2 0.4
v -0.6 2.2 0.3
v -0.4 2.2 0.3
v 0.3 2.2 0.3
v 0.7 2.2 0.3
v 0.8 2.2 0.3
v -0.6 2.2 0.2
v -0.5 2.2 0.2
v -0.4 2.2 0.2
v 0.3 2.2 0.2
v 0.7 2.2 0.2
v -0.6 2.2 -0.2
v -0.5 2.2 -0.2
v -0.4 2.2 -0.2
v 0.3 2.2 -0.2
v 0.7 2.2 -0.2
v -0.6 2.2 -0.3
v -0.4 2.2 -0.3
v 0.3 2.2 -0.3
v 0.7 2.2 -0.3
v 0.8 2.2 -0.3
v -0.6 2.2 -0.4
v -0.4 2.2 -0.4
v -0.6 2.2 -0.5
v -0.5 2.2 -0.5
v -0.4 2.2 -0.5
v 0.3 2.2 -0.5
v 0.7 2.2 -0.5
v 0.8 2.2 -0.5
v 0.3 2.2 -0.6
v 0.7 2.2 -0.6
v -0.4 2.3 0.7
v 0.2 2.3 0.7
v -0.4 2.3 0.6
v 0.2 2.3 0.6
v -0.5 2.3 0.4
v -0.4 2.3 0.4
v -0.5 2.3 0.3
v -0.4 2.3 0.3
v -0.5 2.3 -0.3
v -0.4 2.3 -0.3
v -0.5 2.3 -0.4
v -0.4 2.3 -0.4
v -0.4 2.3 -0.6
v 0.2 2.3 -0.6
v -0.4 2.3 -0.7
v 0.2 2.3 -0.7
v -0.5 2.5 0.5
v -0.4 2.5 0.5
v -0.5 2.5 0.4
v -0.4 2.5 0.4
v -0.5 2.5 0.3
v -0.4 2.5 0.3
v -0.5 2.5 0.2
v -0.4 2.5 0.2
v -0.5 2.5 -0.2
v -0.4 2.5 -0.2
v -0.5 2.5 -0.3
v -0.4 2.5 -0.3
v -0.5 2.5 -0.4
v -0.4 2.5 -0.4
v -0.5 2.5 -0.5
v -0.4 2.5 -0.5
v -0.5 2.1 0.5
v -0.4 2.1 0.5
v -0.5 2.1 0.2
v -0.4 2.1 0.2
v -0.5 2.1 -0.2
v -0.4 2.1 -0.2
v -0.5 2.1 -0.5
v -0.4 2.1 -0.5
v -0.4 2.2 0.7
v 0.2 2.2 0.7
v -0.4 2.2 0.6
v 0.2 2.2 0.6
v -0.4 2.2 -0.6
v 0.2 2.2 -0.6
v -0.4 2.2 -0.7
v 0.2 2.2 -0.7
v 0.3 2.3 0.6
v 0.7 2.3 0.6
v 0.3 2.3 0.5
v 0.7 2.3 0.5
v 0.3 2.3 0.3
v 0.7 2.3 0.3
v 0.3 2.3 0.2
v 0.7 2.3 0.2
v 0.3 2.3 -0.2
v 0.7 2.3 -0.2
v 0.3 2.3 -0.3
v 0.7 2.3 -0.3
v 0.3 2.3 -0.5
v 0.7 2.3 -0.5
v 0.3 2.3 -0.6
v 0.7 2.3 -0.6
v -0.5 2.4 0.7
v 0.3 2.4 0.7
v -0.4 2.4 0.6
v 0.3 2.4 0.6
v -0.5 2.4 0.5
v 0.3 2.4 0.5
v 0.8 2.4 0.5
v -0.5 2.4 0.4
v -0.5 2.4 0.3
v 0.3 2.4 0.3
v 0.8 2.4 0.3
v -0.5 2.4 0.2
v -0.4 2.4 0.1
v -0.2 2.4 0.1
v -5.96046e-008 2.4 0.1
v 0.2 2.4 0.1
v -0.4 2.4 -0.1
v -0.2 2.4 -0.1
v -5.96046e-008 2.4 -0.1
v 0.2 2.4 -0.1
v -0.5 2.4 -0.2
v -0.5 2.4 -0.3
v 0.3 2.4 -0.3
v 0.8 2.4 -0.3
v -0.5 2.4 -0.4
v -0.5 2.4 -0.5
v 0.3 2.4 -0.5
v 0.8 2.4 -0.5
v -0.4 2.4 -0.6
v 0.3 2.4 -0.6
v -0.5 2.4 -0.7
v 0.3 2.4 -0.7
v -0.4 2.5 0.6
v 0.3 2.5 0.6
v -0.4 2.5 0.5
v 0.2 2.5 0.5
v -0.4 2.5 0.4
v 0.2 2.5 0.4
v -0.4 2.5 0.3
v 0.2 2.5 0.3
v -0.4 2.5 0.2
v -0.2 2.5 0.2
v -5.96046e-008 2.5 0.2
v 0.2 2.5 0.2
v -0.4 2.5 0.1
v -0.2 2.5 0.1
v -5.96046e-008 2.5 0.1
v 0.3 2.5 0.1
v -0.4 2.5 -0.1
v -0.2 2.5 -0.1
v -5.96046e-008 2.5 -0.1
v 0.3 2.5 -0.1
v -0.4 2.5 -0.2
v -0.2 2.5 -0.2
v -5.96046e-008 2.5 -0.2
v 0.2 2.5 -0.2
v -0.4 2.5 -0.3
v 0.2 2.5 -0.3
v -0.4 2.5 -0.4
v 0.2 2.5 -0.4
v -0.4 2.5 -0.5
v 0.2 2.5 -0.5
v -0.4 2.5 -0.6
v 0.3 2.5 -0.6
v -0.6 2.6 0.5
v 0.2 2.6 0.5
v -0.6 2.6 0.4
v 0.2 2.6 0.4
v -0.6 2.6 0.3
v 0.2 2.6 0.3
v -0.6 2.6 0.2
v 0.2 2.6 0.2
v -0.6 2.6 -0.2
v 0.2 2.6 -0.2
v -0.6 2.6 -0.3
v 0.2 2.6 -0.3
v -0.6 2.6 -0.4
v 0.2 2.6 -0.4
v -0.6 2.6 -0.5
v 0.2 2.6 -0.5

# faces
f 9/8/1 2/8/1 1/8/1
f 10/8/1 2/8/1 9/8/1
f 11/8/1 4/8/1 3/8/1
f 12/8/1 4/8/1 11/8/1
f 13/8/1 6/8/1 5/8/1
f 14/8/1 6/8/1 13/8/1
f 15/8/1 8/8/1 7/8/1
f 16/8/1 8/8/1 15/8/1
f 22/3/1 18/3/1 17/3/1
f 23/3/1 18/3/1 22/3/1
f 24/3/1 18/3/1 23/3/1
f 25/3/1 18/3/1 24/3/1
f 26/3/1 20/3/1 19/3/1
f 27/3/1 20/3/1 26/3/1
f 28/3/1 20/3/1 27/3/1
f 29/3/1 20/3/1 28/3/1
f 31/3/1 22/3/1 21/3/1
f 31/3/1 23/3/1 22/3/1
f 32/3/1 25/3/1 24/3/1
f 32/3/1 27/3/1 26/3/1
f 32/3/1 26/3/1 25/3/1
f 33/3/1 27/3/1 32/3/1
f 34/3/1 30/3/1 29/3/1
f 34/3/1 29/3/1 28/3/1
f 39/3/1 31/3/1 21/3/1
f 40/3/1 31/3/1 39/3/1
f 41/3/1 36/3/1 35/3/1
f 42/3/1 36/3/1 41/3/1
f 43/3/1 33/3/1 32/3/1
f 44/3/1 33/3/1 43/3/1
f 45/3/1 38/3/1 37/3/1
f 46/3/1 38/3/1 45/3/1
f 47/3/1 30/3/1 34/3/1
f 48/3/1 30/3/1 47/3/1
f 53/3/1 50/3/1 49/3/1
f 54/3/1 50/3/1 53/3/1
f 57/5/1 52/5/1 51/5/1
f 58/5/1 52/5/1 57/5/1
f 59/5/1 52/5/1 58/5/1
f 60/5/1 52/5/1 59/5/1
f 61/5/1 56/5/1 55/5/1
f 62/5/1 56/5/1 61/5/1
f 63/5/1 56/5/1 62/5/1
f 64/5/1 56/5/1 63/5/1
f 65/5/1 59/5/1 58/5/1
f 66/5/1 59/5/1 65/5/1
f 67/5/1 63/5/1 62/5/1
f 68/5/1 63/5/1 67/5/1
f 73/3/1 70/3/1 69/3/1
f 74/3/1 70/3/1 73/3/1
f 75/3/1 70/3/1 74/3/1
f 76/3/1 70/3/1 75/3/1
f 77/3/1 70/3/1 76/3/1
f 78/3/1 70/3/1 77/3/1
f 79/3/1 72/3/1 71/3/1
f 80/3/1 72/3/1 79/3/1
f 81/3/1 72/3/1 80/3/1
f 82/3/1 72/3/1 81/3/1
f 83/3/1 72/3/1 82/3/1
f 84/3/1 72/3/1 83/3/1
f 89/3/1 86/3/1 85/3/1
f 90/3/1 86/3/1 89/3/1
f 91/3/1 88/3/1 87/3/1
f 92/3/1 88/3/1 91/3/1
f 93/8/2 94/8/2 101/8/2
f 101/8/2 94/8/2 102/8/2
f 95/8/2 96/8/2 103/8/2
f 103/8/2 96/8/2 104/8/2
f 97/8/2 98/8/2 105/8/2
f 105/8/2 98/8/2 106/8/2
f 99/8/2 100/8/2 107/8/2
f 107/8/2 100/8/2 108/8/2
f 109/3/2 110/3/2 113/3/2
f 113/3/2 110/3/2 114/3/2
f 111/3/2 112/3/2 115/3/2
f 115/3/2 112/3/2 116/3/2
f 117/3/2 118/3/2 119/3/2
f 119/3/2 118/3/2 120/3/2
f 120/3/2 118/3/2 121/3/2
f 121/3/2 118/3/2 122/3/2
f 120/3/2 121/3/2 123/3/2
f 123/3/2 121/3/2 124/3/2
f 125/8/2 126/8/2 133/8/2
f 133/8/2 126/8/2 134/8/2
f 127/8/2 128/8/2 135/8/2
f 135/8/2 128/8/2 136/8/2
f 129/8/2 130/8/2 137/8/2
f 137/8/2 130/8/2 138/8/2
f 131/8/2 132/8/2 139/8/2
f 139/8/2 132/8/2 140/8/2
f 141/3/2 142/3/2 149/3/2
f 149/3/2 142/3/2 150/3/2
f 143/3/2 144/3/2 151/3/2
f 151/3/2 144/3/2 152/3/2
f 145/3/2 146/3/2 153/3/2
f 153/3/2 146/3/2 154/3/2
f 147/3/2 148/3/2 155/3/2
f 155/3/2 148/3/2 156/3/2
f 141/3/2 149/3/2 157/3/2
f 152/3/2 144/3/2 160/3/2
f 145/3/2 153/3/2 161/3/2
f 156/3/2 148/3/2 164/3/2
f 157/3/2 158/3/2 165/3/2
f 141/3/2 157/3/2 165/3/2
f 165/3/2 158/3/2 166/3/2
f 166/3/2 158/3/2 167/3/2
f 159/3/2 160/3/2 168/3/2
f 161/3/2 162/3/2 169/3/2
f 163/3/2 164/3/2 170/3/2
f 164/3/2 148/3/2 171/3/2
f 170/3/2 164/3/2 171/3/2
f 171/3/2 148/3/2 172/3/2
f 167/3/2 168/3/2 173/3/2
f 166/3/2 167/3/2 173/3/2
f 160/3/2 144/3/2 174/3/2
f 173/3/2 168/3/2 174/3/2
f 168/3/2 160/3/2 174/3/2
f 161/3/2 169/3/2 175/3/2
f 170/3/2 171/3/2 175/3/2
f 169/3/2 170/3/2 175/3/2
f 145/3/2 161/3/2 175/3/2
f 175/3/2 171/3/2 176/3/2
f 177/1/2 178/1/2 182/1/2
f 182/1/2 178/1/2 183/1/2
f 179/1/2 180/1/2 186/1/2
f 186/1/2 180/1/2 187/1/2
f 181/1/2 182/1/2 189/1/2
f 189/1/2 182/1/2 190/1/2
f 183/1/2 184/1/2 191/1/2
f 191/1/2 184/1/2 192/1/2
f 185/1/2 186/1/2 193/1/2
f 193/1/2 186/1/2 194/1/2
f 187/1/2 188/1/2 195/1/2
f 195/1/2 188/1/2 196/1/2
f 197/7/2 198/7/2 201/7/2
f 201/7/2 198/7/2 202/7/2
f 199/7/2 200/7/2 203/7/2
f 203/7/2 200/7/2 204/7/2
f 207/3/3 206/3/3 205/3/3
f 208/3/3 206/3/3 207/3/3
f 209/3/3 207/3/3 205/3/3
f 210/3/3 206/3/3 208/3/3
f 211/3/3 209/3/3 205/3/3
f 211/3/3 210/3/3 209/3/3
f 212/3/3 206/3/3 210/3/3
f 212/3/3 210/3/3 211/3/3
f 219/3/3 214/3/3 213/3/3
f 220/3/3 214/3/3 219/3/3
f 221/1/3 216/1/3 215/1/3
f 222/1/3 216/1/3 221/1/3
f 225/3/3 218/3/3 217/3/3
f 226/3/3 218/3/3 225/3/3
f 227/1/3 224/1/3 223/1/3
f 228/1/3 224/1/3 227/1/3
f 231/8/3 230/8/3 229/8/3
f 232/8/3 230/8/3 231/8/3
f 233/8/3 230/8/3 232/8/3
f 234/8/3 230/8/3 233/8/3
f 235/8/3 230/8/3 234/8/3
f 236/8/3 230/8/3 235/8/3
f 241/1/3 238/1/3 237/1/3
f 242/1/3 238/1/3 241/1/3
f 243/7/3 240/7/3 239/7/3
f 244/7/3 243/7/3 242/7/3
f 245/7/3 240/7/3 243/7/3
f 245/7/3 243/7/3 244/7/3
f 248/8/3 247/8/3 246/8/3
f 249/8/3 247/8/3 248/8/3
f 250/8/3 247/8/3 249/8/3
f 251/8/3 248/8/3 246/8/3
f 252/8/3 248/8/3 251/8/3
f 253/8/3 247/8/3 250/8/3
f 254/8/3 247/8/3 253/8/3
f 255/8/3 247/8/3 254/8/3
f 258/3/3 257/3/3 256/3/3
f 259/3/3 257/3/3 258/3/3
f 262/3/3 261/3/3 260/3/3
f 263/3/3 261/3/3 262/3/3
f 266/3/3 265/3/3 264/3/3
f 267/3/3 265/3/3 266/3/3
f 268/4/3 267/4/3 266/4/3
f 269/4/3 267/4/3 268/4/3
f 271/3/3 269/3/3 268/3/3
f 272/3/3 271/3/3 270/3/3
f 273/3/3 269/3/3 271/3/3
f 273/3/3 271/3/3 272/3/3
f 276/8/3 275/8/3 274/8/3
f 277/8/3 275/8/3 276/8/3
f 278/8/3 275/8/3 277/8/3
f 279/8/3 275/8/3 278/8/3
f 280/8/3 275/8/3 279/8/3
f 281/8/3 275/8/3 280/8/3
f 282/8/3 275/8/3 281/8/3
f 283/8/3 275/8/3 282/8/3
f 286/1/3 285/1/3 284/1/3
f 287/1/3 285/1/3 286/1/3
f 292/1/3 289/1/3 288/1/3
f 293/1/3 289/1/3 292/1/3
f 294/7/3 291/7/3 290/7/3
f 295/7/3 294/7/3 293/7/3
f 296/7/3 291/7/3 294/7/3
f 296/7/3 294/7/3 295/7/3
f 299/8/3 298/8/3 297/8/3
f 300/8/3 298/8/3 299/8/3
f 301/8/3 298/8/3 300/8/3
f 302/8/3 299/8/3 297/8/3
f 303/8/3 299/8/3 302/8/3
f 304/8/3 298/8/3 301/8/3
f 305/8/3 298/8/3 304/8/3
f 306/8/3 298/8/3 305/8/3
f 309/3/3 308/3/3 307/3/3
f 310/3/3 308/3/3 309/3/3
f 311/3/4 312/3/4 313/3/4
f 313/3/4 312/3/4 314/3/4
f 315/8/4 316/8/4 317/8/4
f 317/8/4 316/8/4 318/8/4
f 318/8/4 316/8/4 319/8/4
f 315/8/4 317/8/4 320/8/4
f 320/8/4 317/8/4 321/8/4
f 319/8/4 316/8/4 322/8/4
f 322/8/4 316/8/4 323/8/4
f 323/8/4 316/8/4 324/8/4
f 325/1/4 326/1/4 329/1/4
f 329/1/4 326/1/4 330/1/4
f 327/7/4 328/7/4 331/7/4
f 330/7/4 331/7/4 332/7/4
f 331/7/4 328/7/4 333/7/4
f 332/7/4 331/7/4 333/7/4
f 334/8/4 335/8/4 336/8/4
f 336/8/4 335/8/4 337/8/4
f 337/8/4 335/8/4 338/8/4
f 338/8/4 335/8/4 339/8/4
f 339/8/4 335/8/4 340/8/4
f 340/8/4 335/8/4 341/8/4
f 341/8/4 335/8/4 342/8/4
f 342/8/4 335/8/4 343/8/4
f 344/1/4 345/1/4 346/1/4
f 346/1/4 345/1/4 347/1/4
f 348/3/4 349/3/4 350/3/4
f 350/3/4 349/3/4 351/3/4
f 352/3/4 353/3/4 354/3/4
f 354/3/4 353/3/4 355/3/4
f 354/4/4 355/4/4 356/4/4
f 356/4/4 355/4/4 357/4/4
f 356/3/4 357/3/4 359/3/4
f 358/3/4 359/3/4 360/3/4
f 359/3/4 357/3/4 361/3/4
f 360/3/4 359/3/4 361/3/4
f 362/3/4 363/3/4 364/3/4
f 364/3/4 363/3/4 365/3/4
f 366/8/4 367/8/4 368/8/4
f 368/8/4 367/8/4 369/8/4
f 369/8/4 367/8/4 370/8/4
f 366/8/4 368/8/4 371/8/4
f 371/8/4 368/8/4 372/8/4
f 370/8/4 367/8/4 373/8/4
f 373/8/4 367/8/4 374/8/4
f 374/8/4 367/8/4 375/8/4
f 376/8/4 377/8/4 378/8/4
f 378/8/4 377/8/4 379/8/4
f 379/8/4 377/8/4 380/8/4
f 380/8/4 377/8/4 381/8/4
f 381/8/4 377/8/4 382/8/4
f 382/8/4 377/8/4 383/8/4
f 384/1/4 385/1/4 388/1/4
f 388/1/4 385/1/4 389/1/4
f 386/7/4 387/7/4 390/7/4
f 389/7/4 390/7/4 391/7/4
f 390/7/4 387/7/4 392/7/4
f 391/7/4 390/7/4 392/7/4
f 393/3/4 394/3/4 399/3/4
f 399/3/4 394/3/4 400/3/4
f 395/2/4 396/2/4 401/2/4
f 401/2/4 396/2/4 402/2/4
f 397/3/4 398/3/4 405/3/4
f 405/3/4 398/3/4 406/3/4
f 403/1/4 404/1/4 407/1/4
f 407/1/4 404/1/4 408/1/4
f 409/3/4 410/3/4 411/3/4
f 411/3/4 410/3/4 412/3/4
f 409/3/4 411/3/4 413/3/4
f 412/3/4 410/3/4 414/3/4
f 409/3/4 413/3/4 415/3/4
f 413/3/4 414/3/4 415/3/4
f 414/3/4 410/3/4 416/3/4
f 415/3/4 414/3/4 416/3/4
f 419/3/5 418/3/5 417/3/5
f 420/3/5 418/3/5 419/3/5
f 421/3/5 419/3/5 417/3/5
f 422/3/5 419/3/5 421/3/5
f 424/3/5 419/3/5 422/3/5
f 425/6/5 420/6/5 419/6/5
f 425/3/5 424/3/5 423/3/5
f 425/3/5 419/3/5 424/3/5
f 426/3/5 418/3/5 420/3/5
f 426/6/5 420/6/5 425/6/5
f 427/3/5 425/3/5 423/3/5
f 427/3/5 426/3/5 425/3/5
f 428/3/5 418/3/5 426/3/5
f 428/3/5 426/3/5 427/3/5
f 431/3/5 430/3/5 429/3/5
f 432/3/5 430/3/5 431/3/5
f 433/3/5 430/3/5 432/3/5
f 435/3/5 433/3/5 432/3/5
f 435/1/5 434/1/5 433/1/5
f 436/1/5 434/1/5 435/1/5
f 439/3/5 435/3/5 432/3/5
f 440/3/5 435/3/5 439/3/5
f 441/3/5 438/3/5 437/3/5
f 442/3/5 438/3/5 441/3/5
f 445/3/5 444/3/5 443/3/5
f 447/3/5 445/3/5 443/3/5
f 447/1/5 446/1/5 445/1/5
f 448/1/5 446/1/5 447/1/5
f 450/3/5 447/3/5 443/3/5
f 451/3/5 450/3/5 449/3/5
f 452/3/5 447/3/5 450/3/5
f 452/3/5 450/3/5 451/3/5
f 458/1/5 454/1/5 453/1/5
f 459/1/5 454/1/5 458/1/5
f 461/8/5 457/8/5 456/8/5
f 461/8/5 456/8/5 455/8/5
f 462/8/5 457/8/5 461/8/5
f 466/7/5 460/7/5 459/7/5
f 467/7/5 460/7/5 466/7/5
f 468/8/5 464/8/5 463/8/5
f 469/8/5 464/8/5 468/8/5
f 470/8/5 464/8/5 469/8/5
f 471/1/5 466/1/5 465/1/5
f 472/1/5 466/1/5 471/1/5
f 478/8/5 474/8/5 473/8/5
f 478/8/5 475/8/5 474/8/5
f 479/8/5 475/8/5 478/8/5
f 480/1/5 477/1/5 476/1/5
f 481/1/5 477/1/5 480/1/5
f 485/8/5 484/8/5 483/8/5
f 486/8/5 484/8/5 485/8/5
f 487/8/5 484/8/5 486/8/5
f 489/7/5 482/7/5 481/7/5
f 490/7/5 482/7/5 489/7/5
f 491/1/5 489/1/5 488/1/5
f 492/1/5 489/1/5 491/1/5
f 495/3/5 494/3/5 493/3/5
f 496/3/5 494/3/5 495/3/5
f 499/3/5 498/3/5 497/3/5
f 500/3/5 498/3/5 499/3/5
f 503/3/5 502/3/5 501/3/5
f 504/3/5 502/3/5 503/3/5
f 507/3/5 506/3/5 505/3/5
f 508/3/5 506/3/5 507/3/5
f 511/8/5 510/8/5 509/8/5
f 512/8/5 510/8/5 511/8/5
f 515/8/5 514/8/5 513/8/5
f 516/8/5 514/8/5 515/8/5
f 519/8/5 518/8/5 517/8/5
f 520/8/5 518/8/5 519/8/5
f 523/8/5 522/8/5 521/8/5
f 524/8/5 522/8/5 523/8/5
f 525/3/6 526/3/6 527/3/6
f 527/3/6 526/3/6 528/3/6
f 529/3/6 530/3/6 531/3/6
f 531/3/6 530/3/6 532/3/6
f 533/3/6 534/3/6 535/3/6
f 535/3/6 534/3/6 536/3/6
f 537/3/6 538/3/6 539/3/6
f 539/3/6 538/3/6 540/3/6
f 541/1/6 542/1/6 543/1/6
f 543/1/6 542/1/6 544/1/6
f 545/1/6 546/1/6 547/1/6
f 547/1/6 546/1/6 548/1/6
f 549/1/6 550/1/6 551/1/6
f 551/1/6 550/1/6 552/1/6
f 553/1/6 554/1/6 555/1/6
f 555/1/6 554/1/6 556/1/6
f 557/3/6 558/3/6 559/3/6
f 559/3/6 558/3/6 560/3/6
f 557/3/6 559/3/6 561/3/6
f 561/3/6 559/3/6 564/3/6
f 564/3/6 559/3/6 565/3/6
f 562/7/6 563/7/6 566/7/6
f 566/7/6 563/7/6 567/7/6
f 565/3/6 559/3/6 568/3/6
f 568/3/6 559/3/6 569/3/6
f 568/3/6 569/3/6 573/3/6
f 571/3/6 572/3/6 573/3/6
f 570/3/6 571/3/6 573/3/6
f 569/3/6 570/3/6 573/3/6
f 573/3/6 572/3/6 574/3/6
f 574/3/6 572/3/6 575/3/6
f 575/3/6 572/3/6 576/3/6
f 568/3/6 573/3/6 577/3/6
f 577/3/6 573/3/6 578/3/6
f 578/3/6 573/3/6 581/3/6
f 581/3/6 573/3/6 582/3/6
f 579/7/6 580/7/6 583/7/6
f 583/7/6 580/7/6 584/7/6
f 582/3/6 573/3/6 585/3/6
f 582/3/6 585/3/6 587/3/6
f 585/3/6 586/3/6 587/3/6
f 587/3/6 586/3/6 588/3/6
f 589/3/6 590/3/6 591/3/6
f 591/3/6 590/3/6 592/3/6
f 592/3/6 590/3/6 594/3/6
f 593/3/6 594/3/6 595/3/6
f 594/3/6 590/3/6 596/3/6
f 595/3/6 594/3/6 596/3/6
f 596/3/6 590/3/6 600/3/6
f 597/3/6 598/3/6 601/3/6
f 598/4/6 599/4/6 602/4/6
f 601/3/6 598/3/6 602/3/6
f 599/3/6 600/3/6 603/3/6
f 602/4/6 599/4/6 603/4/6
f 600/3/6 590/3/6 604/3/6
f 603/3/6 600/3/6 604/3/6
f 605/3/6 606/3/6 609/3/6
f 606/4/6 607/4/6 610/4/6
f 609/3/6 606/3/6 610/3/6
f 607/3/6 608/3/6 611/3/6
f 610/4/6 607/4/6 611/4/6
f 611/3/6 608/3/6 612/3/6
f 612/3/6 608/3/6 614/3/6
f 613/3/6 614/3/6 615/3/6
f 614/3/6 608/3/6 616/3/6
f 615/3/6 614/3/6 616/3/6
f 616/3/6 608/3/6 618/3/6
f 617/3/6 618/3/6 619/3/6
f 618/3/6 608/3/6 620/3/6
f 619/3/6 618/3/6 620/3/6
f 621/8/6 622/8/6 623/8/6
f 623/8/6 622/8/6 624/8/6
f 625/8/6 626/8/6 627/8/6
f 627/8/6 626/8/6 628/8/6
f 629/8/6 630/8/6 631/8/6
f 631/8/6 630/8/6 632/8/6
f 633/8/6 634/8/6 635/8/6
f 635/8/6 634/8/6 636/8/6
