# MagicaVoxel @ Ephtracy

# group
o 

# material
mtllib untitled.mtl
usemtl palette

# normals
vn -1 0 0
vn 1 0 0
vn 0 0 1
vn 0 0 -1
vn 0 -1 0
vn 0 1 0

# texcoords
vt 0.0136719 0.5
vt 0.0214844 0.5
vt 0.0683594 0.5
vt 0.279297 0.5
vt 0.306641 0.5
vt 0.591797 0.5
vt 0.974609 0.5

# verts
v 0 2 -0.9
v 0 2 -1.1
v 0 2.1 -0.9
v 0 2.1 -1.1
v 0.1 2.1 -0.9
v 0.1 2.1 -1.1
v 0.1 2.2 -0.9
v 0.1 2.2 -1.1
v 0.2 2 -0.8
v 0.2 2 -0.9
v 0.2 2 -1.1
v 0.2 2 -1.2
v 0.2 2.2 -0.9
v 0.2 2.2 -1.1
v 0.2 2.3 -0.8
v 0.2 2.3 -1.2
v 0.6 2.2 -0.9
v 0.6 2.2 -1.1
v 0.6 2.3 -0.9
v 0.6 2.3 -1.1
v 0.7 2 -0.8
v 0.7 2 -0.9
v 0.7 2 -1.1
v 0.7 2 -1.2
v 0.7 2.2 -0.9
v 0.7 2.2 -1.1
v 0.7 2.3 -0.8
v 0.7 2.3 -0.9
v 0.7 2.3 -1.1
v 0.7 2.3 -1.2
v 0.7 2.4 -0.9
v 0.7 2.4 -1.1
v 0.8 2 -0.2
v 0.8 2 -0.3
v 0.8 2 -0.7
v 0.8 2 -0.8
v 0.8 2 -1.2
v 0.8 2 -1.3
v 0.8 2 -1.7
v 0.8 2 -1.8
v 0.8 2.3 -0.2
v 0.8 2.3 -0.3
v 0.8 2.3 -0.7
v 0.8 2.3 -0.8
v 0.8 2.3 -0.9
v 0.8 2.3 -1.1
v 0.8 2.3 -1.2
v 0.8 2.3 -1.3
v 0.8 2.3 -1.7
v 0.8 2.3 -1.8
v 0.8 2.4 -0.9
v 0.8 2.4 -1.1
v 0.8 2.5 -0.8
v 0.8 2.5 -1.2
v 0.9 2 0
v 0.9 2 -0.2
v 0.9 2 -0.3
v 0.9 2 -0.7
v 0.9 2 -1.3
v 0.9 2 -1.7
v 0.9 2 -1.8
v 0.9 2 -2
v 0.9 2.1 0
v 0.9 2.1 -0.1
v 0.9 2.1 -1.9
v 0.9 2.1 -2
v 0.9 2.2 -0.1
v 0.9 2.2 -0.2
v 0.9 2.2 -0.3
v 0.9 2.2 -0.6
v 0.9 2.2 -0.7
v 0.9 2.2 -1.3
v 0.9 2.2 -1.4
v 0.9 2.2 -1.7
v 0.9 2.2 -1.8
v 0.9 2.2 -1.9
v 0.9 2.3 -0.6
v 0.9 2.3 -0.7
v 0.9 2.3 -0.8
v 0.9 2.3 -1.2
v 0.9 2.3 -1.3
v 0.9 2.3 -1.4
v 0.9 2.4 -0.7
v 0.9 2.4 -0.8
v 0.9 2.4 -1.2
v 0.9 2.4 -1.3
v 0.9 2.5 -0.9
v 0.9 2.5 -1.1
v 0.9 2.7 -1.1
v 0.9 2.7 -1.2
v 0.9 2.8 -1.1
v 0.9 2.8 -1.2
v 0.9 2.8 -1.3
v 0.9 2.9 -1.2
v 0.9 2.9 -1.3
v 0.9 2.9 -1.4
v 0.9 3 -0.9
v 0.9 3 -1.1
v 0.9 3 -1.3
v 0.9 3 -1.4
v 1.7 2 -0.8
v 1.7 2 -0.9
v 1.7 2 -1.1
v 1.7 2 -1.2
v 1.7 2.2 -0.9
v 1.7 2.2 -1.1
v 1.7 2.3 -0.8
v 1.7 2.3 -1.2
v 0.3 2 -0.8
v 0.3 2 -0.9
v 0.3 2 -1.1
v 0.3 2 -1.2
v 0.3 2.2 -0.9
v 0.3 2.2 -1.1
v 0.3 2.3 -0.8
v 0.3 2.3 -1.2
v 1.1 2 0
v 1.1 2 -0.2
v 1.1 2 -0.3
v 1.1 2 -0.7
v 1.1 2 -1.3
v 1.1 2 -1.7
v 1.1 2 -1.8
v 1.1 2 -2
v 1.1 2.1 0
v 1.1 2.1 -0.1
v 1.1 2.1 -1.9
v 1.1 2.1 -2
v 1.1 2.2 -0.1
v 1.1 2.2 -0.2
v 1.1 2.2 -0.3
v 1.1 2.2 -0.6
v 1.1 2.2 -0.7
v 1.1 2.2 -1.3
v 1.1 2.2 -1.4
v 1.1 2.2 -1.7
v 1.1 2.2 -1.8
v 1.1 2.2 -1.9
v 1.1 2.3 -0.6
v 1.1 2.3 -0.7
v 1.1 2.3 -0.8
v 1.1 2.3 -1.2
v 1.1 2.3 -1.3
v 1.1 2.3 -1.4
v 1.1 2.4 -0.7
v 1.1 2.4 -0.8
v 1.1 2.4 -1.2
v 1.1 2.4 -1.3
v 1.1 2.5 -0.9
v 1.1 2.5 -1.1
v 1.1 2.7 -1.1
v 1.1 2.7 -1.2
v 1.1 2.8 -1.1
v 1.1 2.8 -1.2
v 1.1 2.8 -1.3
v 1.1 2.9 -1.2
v 1.1 2.9 -1.3
v 1.1 2.9 -1.4
v 1.1 3 -0.9
v 1.1 3 -1.1
v 1.1 3 -1.3
v 1.1 3 -1.4
v 1.2 2 -0.2
v 1.2 2 -0.3
v 1.2 2 -0.7
v 1.2 2 -0.8
v 1.2 2 -1.2
v 1.2 2 -1.3
v 1.2 2 -1.7
v 1.2 2 -1.8
v 1.2 2.3 -0.2
v 1.2 2.3 -0.3
v 1.2 2.3 -0.7
v 1.2 2.3 -0.8
v 1.2 2.3 -0.9
v 1.2 2.3 -1.1
v 1.2 2.3 -1.2
v 1.2 2.3 -1.3
v 1.2 2.3 -1.7
v 1.2 2.3 -1.8
v 1.2 2.4 -0.9
v 1.2 2.4 -1.1
v 1.2 2.5 -0.8
v 1.2 2.5 -1.2
v 1.3 2 -0.8
v 1.3 2 -0.9
v 1.3 2 -1.1
v 1.3 2 -1.2
v 1.3 2.2 -0.9
v 1.3 2.2 -1.1
v 1.3 2.3 -0.8
v 1.3 2.3 -0.9
v 1.3 2.3 -1.1
v 1.3 2.3 -1.2
v 1.3 2.4 -0.9
v 1.3 2.4 -1.1
v 1.4 2.2 -0.9
v 1.4 2.2 -1.1
v 1.4 2.3 -0.9
v 1.4 2.3 -1.1
v 1.8 2 -0.8
v 1.8 2 -0.9
v 1.8 2 -1.1
v 1.8 2 -1.2
v 1.8 2.2 -0.9
v 1.8 2.2 -1.1
v 1.8 2.3 -0.8
v 1.8 2.3 -1.2
v 1.9 2.1 -0.9
v 1.9 2.1 -1.1
v 1.9 2.2 -0.9
v 1.9 2.2 -1.1
v 2 2 -0.9
v 2 2 -1.1
v 2 2.1 -0.9
v 2 2.1 -1.1
v 0.9 2 0
v 0.9 2.1 0
v 1.1 2 0
v 1.1 2.1 0
v 0.9 2.1 -0.1
v 0.9 2.2 -0.1
v 1.1 2.1 -0.1
v 1.1 2.2 -0.1
v 0.8 2 -0.2
v 0.8 2.3 -0.2
v 0.9 2 -0.2
v 0.9 2.2 -0.2
v 1.1 2 -0.2
v 1.1 2.2 -0.2
v 1.2 2 -0.2
v 1.2 2.3 -0.2
v 0.9 2.2 -0.6
v 0.9 2.3 -0.6
v 1.1 2.2 -0.6
v 1.1 2.3 -0.6
v 0.8 2 -0.7
v 0.8 2.3 -0.7
v 0.9 2 -0.7
v 0.9 2.2 -0.7
v 0.9 2.3 -0.7
v 0.9 2.4 -0.7
v 1.1 2 -0.7
v 1.1 2.2 -0.7
v 1.1 2.3 -0.7
v 1.1 2.4 -0.7
v 1.2 2 -0.7
v 1.2 2.3 -0.7
v 0.2 2 -0.8
v 0.2 2.3 -0.8
v 0.3 2 -0.8
v 0.3 2.3 -0.8
v 0.7 2 -0.8
v 0.7 2.3 -0.8
v 0.8 2 -0.8
v 0.8 2.3 -0.8
v 0.8 2.5 -0.8
v 0.9 2.3 -0.8
v 0.9 2.4 -0.8
v 1.1 2.3 -0.8
v 1.1 2.4 -0.8
v 1.2 2 -0.8
v 1.2 2.3 -0.8
v 1.2 2.5 -0.8
v 1.3 2 -0.8
v 1.3 2.3 -0.8
v 1.7 2 -0.8
v 1.7 2.3 -0.8
v 1.8 2 -0.8
v 1.8 2.3 -0.8
v 0 2 -0.9
v 0 2.1 -0.9
v 0.1 2.1 -0.9
v 0.1 2.2 -0.9
v 0.2 2 -0.9
v 0.2 2.2 -0.9
v 0.3 2 -0.9
v 0.3 2.2 -0.9
v 0.6 2.2 -0.9
v 0.6 2.3 -0.9
v 0.7 2 -0.9
v 0.7 2.2 -0.9
v 0.7 2.3 -0.9
v 0.7 2.4 -0.9
v 0.8 2.3 -0.9
v 0.8 2.4 -0.9
v 0.9 2.5 -0.9
v 0.9 3 -0.9
v 1.1 2.5 -0.9
v 1.1 3 -0.9
v 1.2 2.3 -0.9
v 1.2 2.4 -0.9
v 1.3 2 -0.9
v 1.3 2.2 -0.9
v 1.3 2.3 -0.9
v 1.3 2.4 -0.9
v 1.4 2.2 -0.9
v 1.4 2.3 -0.9
v 1.7 2 -0.9
v 1.7 2.2 -0.9
v 1.8 2 -0.9
v 1.8 2.2 -0.9
v 1.9 2.1 -0.9
v 1.9 2.2 -0.9
v 2 2 -0.9
v 2 2.1 -0.9
v 0.9 2.8 -1.2
v 0.9 2.9 -1.2
v 1.1 2.8 -1.2
v 1.1 2.9 -1.2
v 0.9 2.9 -1.3
v 0.9 3 -1.3
v 1.1 2.9 -1.3
v 1.1 3 -1.3
v 0.8 2 -1.7
v 0.8 2.3 -1.7
v 0.9 2 -1.7
v 0.9 2.2 -1.7
v 1.1 2 -1.7
v 1.1 2.2 -1.7
v 1.2 2 -1.7
v 1.2 2.3 -1.7
v 0.8 2 -0.3
v 0.8 2.3 -0.3
v 0.9 2 -0.3
v 0.9 2.2 -0.3
v 1.1 2 -0.3
v 1.1 2.2 -0.3
v 1.2 2 -0.3
v 1.2 2.3 -0.3
v 0 2 -1.1
v 0 2.1 -1.1
v 0.1 2.1 -1.1
v 0.1 2.2 -1.1
v 0.2 2 -1.1
v 0.2 2.2 -1.1
v 0.3 2 -1.1
v 0.3 2.2 -1.1
v 0.6 2.2 -1.1
v 0.6 2.3 -1.1
v 0.7 2 -1.1
v 0.7 2.2 -1.1
v 0.7 2.3 -1.1
v 0.7 2.4 -1.1
v 0.8 2.3 -1.1
v 0.8 2.4 -1.1
v 0.9 2.5 -1.1
v 0.9 2.7 -1.1
v 0.9 2.8 -1.1
v 0.9 3 -1.1
v 1.1 2.5 -1.1
v 1.1 2.7 -1.1
v 1.1 2.8 -1.1
v 1.1 3 -1.1
v 1.2 2.3 -1.1
v 1.2 2.4 -1.1
v 1.3 2 -1.1
v 1.3 2.2 -1.1
v 1.3 2.3 -1.1
v 1.3 2.4 -1.1
v 1.4 2.2 -1.1
v 1.4 2.3 -1.1
v 1.7 2 -1.1
v 1.7 2.2 -1.1
v 1.8 2 -1.1
v 1.8 2.2 -1.1
v 1.9 2.1 -1.1
v 1.9 2.2 -1.1
v 2 2 -1.1
v 2 2.1 -1.1
v 0.2 2 -1.2
v 0.2 2.3 -1.2
v 0.3 2 -1.2
v 0.3 2.3 -1.2
v 0.7 2 -1.2
v 0.7 2.3 -1.2
v 0.8 2 -1.2
v 0.8 2.3 -1.2
v 0.8 2.5 -1.2
v 0.9 2.3 -1.2
v 0.9 2.4 -1.2
v 0.9 2.7 -1.2
v 0.9 2.8 -1.2
v 1.1 2.3 -1.2
v 1.1 2.4 -1.2
v 1.1 2.7 -1.2
v 1.1 2.8 -1.2
v 1.2 2 -1.2
v 1.2 2.3 -1.2
v 1.2 2.5 -1.2
v 1.3 2 -1.2
v 1.3 2.3 -1.2
v 1.7 2 -1.2
v 1.7 2.3 -1.2
v 1.8 2 -1.2
v 1.8 2.3 -1.2
v 0.8 2 -1.3
v 0.8 2.3 -1.3
v 0.9 2 -1.3
v 0.9 2.2 -1.3
v 0.9 2.3 -1.3
v 0.9 2.4 -1.3
v 0.9 2.8 -1.3
v 0.9 2.9 -1.3
v 1.1 2 -1.3
v 1.1 2.2 -1.3
v 1.1 2.3 -1.3
v 1.1 2.4 -1.3
v 1.1 2.8 -1.3
v 1.1 2.9 -1.3
v 1.2 2 -1.3
v 1.2 2.3 -1.3
v 0.9 2.2 -1.4
v 0.9 2.3 -1.4
v 0.9 2.9 -1.4
v 0.9 3 -1.4
v 1.1 2.2 -1.4
v 1.1 2.3 -1.4
v 1.1 2.9 -1.4
v 1.1 3 -1.4
v 0.8 2 -1.8
v 0.8 2.3 -1.8
v 0.9 2 -1.8
v 0.9 2.2 -1.8
v 1.1 2 -1.8
v 1.1 2.2 -1.8
v 1.2 2 -1.8
v 1.2 2.3 -1.8
v 0.9 2.1 -1.9
v 0.9 2.2 -1.9
v 1.1 2.1 -1.9
v 1.1 2.2 -1.9
v 0.9 2 -2
v 0.9 2.1 -2
v 1.1 2 -2
v 1.1 2.1 -2
v 0.9 2 0
v 1.1 2 0
v 0.8 2 -0.2
v 0.9 2 -0.2
v 1.1 2 -0.2
v 1.2 2 -0.2
v 0.8 2 -0.3
v 0.9 2 -0.3
v 1.1 2 -0.3
v 1.2 2 -0.3
v 0.8 2 -0.7
v 0.9 2 -0.7
v 1.1 2 -0.7
v 1.2 2 -0.7
v 0.2 2 -0.8
v 0.3 2 -0.8
v 0.7 2 -0.8
v 0.8 2 -0.8
v 0.9 2 -0.8
v 1.1 2 -0.8
v 1.2 2 -0.8
v 1.3 2 -0.8
v 1.7 2 -0.8
v 1.8 2 -0.8
v 0 2 -0.9
v 0.2 2 -0.9
v 0.3 2 -0.9
v 0.7 2 -0.9
v 0.8 2 -0.9
v 1.2 2 -0.9
v 1.3 2 -0.9
v 1.7 2 -0.9
v 1.8 2 -0.9
v 2 2 -0.9
v 0 2 -1.1
v 0.2 2 -1.1
v 0.3 2 -1.1
v 0.7 2 -1.1
v 0.8 2 -1.1
v 1.2 2 -1.1
v 1.3 2 -1.1
v 1.7 2 -1.1
v 1.8 2 -1.1
v 2 2 -1.1
v 0.2 2 -1.2
v 0.3 2 -1.2
v 0.7 2 -1.2
v 0.8 2 -1.2
v 0.9 2 -1.2
v 1.1 2 -1.2
v 1.2 2 -1.2
v 1.3 2 -1.2
v 1.7 2 -1.2
v 1.8 2 -1.2
v 0.8 2 -1.3
v 0.9 2 -1.3
v 1.1 2 -1.3
v 1.2 2 -1.3
v 0.8 2 -1.7
v 0.9 2 -1.7
v 1.1 2 -1.7
v 1.2 2 -1.7
v 0.8 2 -1.8
v 0.9 2 -1.8
v 1.1 2 -1.8
v 1.2 2 -1.8
v 0.9 2 -2
v 1.1 2 -2
v 0.9 2.7 -1.1
v 1.1 2.7 -1.1
v 0.9 2.7 -1.2
v 1.1 2.7 -1.2
v 0.9 2.8 -1.2
v 1.1 2.8 -1.2
v 0.9 2.8 -1.3
v 1.1 2.8 -1.3
v 0.9 2.9 -1.3
v 1.1 2.9 -1.3
v 0.9 2.9 -1.4
v 1.1 2.9 -1.4
v 0.9 2.1 0
v 1.1 2.1 0
v 0.9 2.1 -0.1
v 1.1 2.1 -0.1
v 0 2.1 -0.9
v 0.1 2.1 -0.9
v 1.9 2.1 -0.9
v 2 2.1 -0.9
v 0 2.1 -1.1
v 0.1 2.1 -1.1
v 1.9 2.1 -1.1
v 2 2.1 -1.1
v 0.9 2.1 -1.9
v 1.1 2.1 -1.9
v 0.9 2.1 -2
v 1.1 2.1 -2
v 0.9 2.2 -0.1
v 1.1 2.2 -0.1
v 0.9 2.2 -0.2
v 1.1 2.2 -0.2
v 0.9 2.2 -0.3
v 1.1 2.2 -0.3
v 0.9 2.2 -0.6
v 1.1 2.2 -0.6
v 0.1 2.2 -0.9
v 0.2 2.2 -0.9
v 0.3 2.2 -0.9
v 0.6 2.2 -0.9
v 1.4 2.2 -0.9
v 1.7 2.2 -0.9
v 1.8 2.2 -0.9
v 1.9 2.2 -0.9
v 0.1 2.2 -1.1
v 0.2 2.2 -1.1
v 0.3 2.2 -1.1
v 0.6 2.2 -1.1
v 1.4 2.2 -1.1
v 1.7 2.2 -1.1
v 1.8 2.2 -1.1
v 1.9 2.2 -1.1
v 0.9 2.2 -1.4
v 1.1 2.2 -1.4
v 0.9 2.2 -1.7
v 1.1 2.2 -1.7
v 0.9 2.2 -1.8
v 1.1 2.2 -1.8
v 0.9 2.2 -1.9
v 1.1 2.2 -1.9
v 0.8 2.3 -0.2
v 1.2 2.3 -0.2
v 0.8 2.3 -0.3
v 1.2 2.3 -0.3
v 0.9 2.3 -0.6
v 1.1 2.3 -0.6
v 0.8 2.3 -0.7
v 0.9 2.3 -0.7
v 1.1 2.3 -0.7
v 1.2 2.3 -0.7
v 0.2 2.3 -0.8
v 0.3 2.3 -0.8
v 0.7 2.3 -0.8
v 0.8 2.3 -0.8
v 0.9 2.3 -0.8
v 1.1 2.3 -0.8
v 1.2 2.3 -0.8
v 1.3 2.3 -0.8
v 1.7 2.3 -0.8
v 1.8 2.3 -0.8
v 0.6 2.3 -0.9
v 0.7 2.3 -0.9
v 0.8 2.3 -0.9
v 1.2 2.3 -0.9
v 1.3 2.3 -0.9
v 1.4 2.3 -0.9
v 0.6 2.3 -1.1
v 0.7 2.3 -1.1
v 0.8 2.3 -1.1
v 1.2 2.3 -1.1
v 1.3 2.3 -1.1
v 1.4 2.3 -1.1
v 0.2 2.3 -1.2
v 0.3 2.3 -1.2
v 0.7 2.3 -1.2
v 0.8 2.3 -1.2
v 0.9 2.3 -1.2
v 1.1 2.3 -1.2
v 1.2 2.3 -1.2
v 1.3 2.3 -1.2
v 1.7 2.3 -1.2
v 1.8 2.3 -1.2
v 0.8 2.3 -1.3
v 0.9 2.3 -1.3
v 1.1 2.3 -1.3
v 1.2 2.3 -1.3
v 0.9 2.3 -1.4
v 1.1 2.3 -1.4
v 0.8 2.3 -1.7
v 1.2 2.3 -1.7
v 0.8 2.3 -1.8
v 1.2 2.3 -1.8
v 0.9 2.4 -0.7
v 1.1 2.4 -0.7
v 0.9 2.4 -0.8
v 1.1 2.4 -0.8
v 0.7 2.4 -0.9
v 0.8 2.4 -0.9
v 1.2 2.4 -0.9
v 1.3 2.4 -0.9
v 0.7 2.4 -1.1
v 0.8 2.4 -1.1
v 1.2 2.4 -1.1
v 1.3 2.4 -1.1
v 0.9 2.4 -1.2
v 1.1 2.4 -1.2
v 0.9 2.4 -1.3
v 1.1 2.4 -1.3
v 0.8 2.5 -0.8
v 1.2 2.5 -0.8
v 0.9 2.5 -0.9
v 1.1 2.5 -0.9
v 0.9 2.5 -1.1
v 1.1 2.5 -1.1
v 0.8 2.5 -1.2
v 1.2 2.5 -1.2
v 0.9 2.8 -1.1
v 1.1 2.8 -1.1
v 0.9 2.8 -1.2
v 1.1 2.8 -1.2
v 0.9 2.9 -1.2
v 1.1 2.9 -1.2
v 0.9 2.9 -1.3
v 1.1 2.9 -1.3
v 0.9 3 -0.9
v 1.1 3 -0.9
v 0.9 3 -1.1
v 1.1 3 -1.1
v 0.9 3 -1.3
v 1.1 3 -1.3
v 0.9 3 -1.4
v 1.1 3 -1.4

# faces
f 3/4/1 2/4/1 1/4/1
f 4/4/1 2/4/1 3/4/1
f 7/4/1 6/4/1 5/4/1
f 8/4/1 6/4/1 7/4/1
f 13/7/1 10/7/1 9/7/1
f 14/7/1 12/7/1 11/7/1
f 15/7/1 13/7/1 9/7/1
f 15/7/1 14/7/1 13/7/1
f 16/7/1 12/7/1 14/7/1
f 16/7/1 14/7/1 15/7/1
f 19/1/1 18/1/1 17/1/1
f 20/1/1 18/1/1 19/1/1
f 25/1/1 22/1/1 21/1/1
f 26/1/1 24/1/1 23/1/1
f 27/1/1 25/1/1 21/1/1
f 28/1/1 25/1/1 27/1/1
f 29/1/1 24/1/1 26/1/1
f 30/1/1 24/1/1 29/1/1
f 31/1/1 29/1/1 28/1/1
f 32/1/1 29/1/1 31/1/1
f 41/7/1 34/7/1 33/7/1
f 42/7/1 34/7/1 41/7/1
f 43/1/1 36/1/1 35/1/1
f 44/1/1 36/1/1 43/1/1
f 47/1/1 38/1/1 37/1/1
f 48/1/1 38/1/1 47/1/1
f 49/7/1 40/7/1 39/7/1
f 50/7/1 40/7/1 49/7/1
f 51/6/1 45/6/1 44/6/1
f 52/6/1 47/6/1 46/6/1
f 53/6/1 51/6/1 44/6/1
f 53/6/1 52/6/1 51/6/1
f 54/6/1 47/6/1 52/6/1
f 54/6/1 52/6/1 53/6/1
f 63/4/1 56/4/1 55/4/1
f 64/4/1 56/4/1 63/4/1
f 65/4/1 62/4/1 61/4/1
f 66/4/1 62/4/1 65/4/1
f 67/4/1 56/4/1 64/4/1
f 68/4/1 56/4/1 67/4/1
f 69/3/1 58/3/1 57/3/1
f 70/3/1 58/3/1 69/3/1
f 71/3/1 58/3/1 70/3/1
f 72/3/1 60/3/1 59/3/1
f 73/3/1 60/3/1 72/3/1
f 74/3/1 60/3/1 73/3/1
f 75/4/1 65/4/1 61/4/1
f 76/4/1 65/4/1 75/4/1
f 77/1/1 71/1/1 70/1/1
f 78/1/1 71/1/1 77/1/1
f 81/1/1 73/1/1 72/1/1
f 82/1/1 73/1/1 81/1/1
f 83/1/1 79/1/1 78/1/1
f 84/1/1 79/1/1 83/1/1
f 85/1/1 81/1/1 80/1/1
f 86/1/1 81/1/1 85/1/1
f 89/3/1 88/3/1 87/3/1
f 91/3/1 89/3/1 87/3/1
f 91/2/1 90/2/1 89/2/1
f 92/2/1 90/2/1 91/2/1
f 94/2/1 93/2/1 92/2/1
f 95/2/1 93/2/1 94/2/1
f 97/3/1 91/3/1 87/3/1
f 98/3/1 91/3/1 97/3/1
f 99/2/1 96/2/1 95/2/1
f 100/2/1 96/2/1 99/2/1
f 105/7/1 102/7/1 101/7/1
f 106/7/1 104/7/1 103/7/1
f 107/7/1 105/7/1 101/7/1
f 107/7/1 106/7/1 105/7/1
f 108/7/1 104/7/1 106/7/1
f 108/7/1 106/7/1 107/7/1
f 109/7/2 110/7/2 113/7/2
f 111/7/2 112/7/2 114/7/2
f 109/7/2 113/7/2 115/7/2
f 113/7/2 114/7/2 115/7/2
f 114/7/2 112/7/2 116/7/2
f 115/7/2 114/7/2 116/7/2
f 117/4/2 118/4/2 125/4/2
f 125/4/2 118/4/2 126/4/2
f 123/4/2 124/4/2 127/4/2
f 127/4/2 124/4/2 128/4/2
f 126/4/2 118/4/2 129/4/2
f 129/4/2 118/4/2 130/4/2
f 119/3/2 120/3/2 131/3/2
f 131/3/2 120/3/2 132/3/2
f 132/3/2 120/3/2 133/3/2
f 121/3/2 122/3/2 134/3/2
f 134/3/2 122/3/2 135/3/2
f 135/3/2 122/3/2 136/3/2
f 123/4/2 127/4/2 137/4/2
f 137/4/2 127/4/2 138/4/2
f 132/1/2 133/1/2 139/1/2
f 139/1/2 133/1/2 140/1/2
f 134/1/2 135/1/2 143/1/2
f 143/1/2 135/1/2 144/1/2
f 140/1/2 141/1/2 145/1/2
f 145/1/2 141/1/2 146/1/2
f 142/1/2 143/1/2 147/1/2
f 147/1/2 143/1/2 148/1/2
f 149/3/2 150/3/2 151/3/2
f 149/3/2 151/3/2 153/3/2
f 151/2/2 152/2/2 153/2/2
f 153/2/2 152/2/2 154/2/2
f 154/2/2 155/2/2 156/2/2
f 156/2/2 155/2/2 157/2/2
f 149/3/2 153/3/2 159/3/2
f 159/3/2 153/3/2 160/3/2
f 157/2/2 158/2/2 161/2/2
f 161/2/2 158/2/2 162/2/2
f 163/7/2 164/7/2 171/7/2
f 171/7/2 164/7/2 172/7/2
f 165/1/2 166/1/2 173/1/2
f 173/1/2 166/1/2 174/1/2
f 167/1/2 168/1/2 177/1/2
f 177/1/2 168/1/2 178/1/2
f 169/7/2 170/7/2 179/7/2
f 179/7/2 170/7/2 180/7/2
f 174/6/2 175/6/2 181/6/2
f 176/6/2 177/6/2 182/6/2
f 174/6/2 181/6/2 183/6/2
f 181/6/2 182/6/2 183/6/2
f 182/6/2 177/6/2 184/6/2
f 183/6/2 182/6/2 184/6/2
f 185/1/2 186/1/2 189/1/2
f 187/1/2 188/1/2 190/1/2
f 185/1/2 189/1/2 191/1/2
f 191/1/2 189/1/2 192/1/2
f 190/1/2 188/1/2 193/1/2
f 193/1/2 188/1/2 194/1/2
f 192/1/2 193/1/2 195/1/2
f 195/1/2 193/1/2 196/1/2
f 197/1/2 198/1/2 199/1/2
f 199/1/2 198/1/2 200/1/2
f 201/7/2 202/7/2 205/7/2
f 203/7/2 204/7/2 206/7/2
f 201/7/2 205/7/2 207/7/2
f 205/7/2 206/7/2 207/7/2
f 206/7/2 204/7/2 208/7/2
f 207/7/2 206/7/2 208/7/2
f 209/4/2 210/4/2 211/4/2
f 211/4/2 210/4/2 212/4/2
f 213/4/2 214/4/2 215/4/2
f 215/4/2 214/4/2 216/4/2
f 219/4/3 218/4/3 217/4/3
f 220/4/3 218/4/3 219/4/3
f 223/4/3 222/4/3 221/4/3
f 224/4/3 222/4/3 223/4/3
f 227/7/3 226/7/3 225/7/3
f 228/7/3 226/7/3 227/7/3
f 230/7/3 226/7/3 228/7/3
f 231/7/3 230/7/3 229/7/3
f 232/7/3 226/7/3 230/7/3
f 232/7/3 230/7/3 231/7/3
f 235/1/3 234/1/3 233/1/3
f 236/1/3 234/1/3 235/1/3
f 239/1/3 238/1/3 237/1/3
f 240/1/3 238/1/3 239/1/3
f 241/1/3 238/1/3 240/1/3
f 245/1/3 242/1/3 241/1/3
f 246/1/3 242/1/3 245/1/3
f 247/1/3 244/1/3 243/1/3
f 247/1/3 245/1/3 244/1/3
f 248/1/3 245/1/3 247/1/3
f 251/7/3 250/7/3 249/7/3
f 252/7/3 250/7/3 251/7/3
f 255/1/3 254/1/3 253/1/3
f 256/1/3 254/1/3 255/1/3
f 258/6/3 257/6/3 256/6/3
f 259/6/3 257/6/3 258/6/3
f 261/6/3 257/6/3 259/6/3
f 263/6/3 261/6/3 260/6/3
f 264/6/3 257/6/3 261/6/3
f 264/6/3 261/6/3 263/6/3
f 265/1/3 263/1/3 262/1/3
f 266/1/3 263/1/3 265/1/3
f 269/7/3 268/7/3 267/7/3
f 270/7/3 268/7/3 269/7/3
f 273/4/3 272/4/3 271/4/3
f 275/4/3 273/4/3 271/4/3
f 275/4/3 274/4/3 273/4/3
f 276/4/3 274/4/3 275/4/3
f 279/3/3 278/3/3 277/3/3
f 281/3/3 279/3/3 277/3/3
f 282/1/3 280/1/3 279/1/3
f 282/3/3 279/3/3 281/3/3
f 283/1/3 280/1/3 282/1/3
f 285/1/3 284/1/3 283/1/3
f 286/1/3 284/1/3 285/1/3
f 289/3/3 288/3/3 287/3/3
f 290/3/3 288/3/3 289/3/3
f 295/1/3 292/1/3 291/1/3
f 296/1/3 292/1/3 295/1/3
f 297/3/3 294/3/3 293/3/3
f 297/1/3 295/1/3 294/1/3
f 298/1/3 295/1/3 297/1/3
f 299/3/3 297/3/3 293/3/3
f 300/3/3 297/3/3 299/3/3
f 303/4/3 302/4/3 301/4/3
f 304/4/3 302/4/3 303/4/3
f 305/4/3 303/4/3 301/4/3
f 306/4/3 303/4/3 305/4/3
f 309/2/3 308/2/3 307/2/3
f 310/2/3 308/2/3 309/2/3
f 313/2/3 312/2/3 311/2/3
f 314/2/3 312/2/3 313/2/3
f 317/7/3 316/7/3 315/7/3
f 318/7/3 316/7/3 317/7/3
f 320/7/3 316/7/3 318/7/3
f 321/7/3 320/7/3 319/7/3
f 322/7/3 316/7/3 320/7/3
f 322/7/3 320/7/3 321/7/3
f 323/7/4 324/7/4 325/7/4
f 325/7/4 324/7/4 326/7/4
f 326/7/4 324/7/4 328/7/4
f 327/7/4 328/7/4 329/7/4
f 328/7/4 324/7/4 330/7/4
f 329/7/4 328/7/4 330/7/4
f 331/4/4 332/4/4 333/4/4
f 331/4/4 333/4/4 335/4/4
f 333/4/4 334/4/4 335/4/4
f 335/4/4 334/4/4 336/4/4
f 337/3/4 338/3/4 339/3/4
f 337/3/4 339/3/4 341/3/4
f 339/1/4 340/1/4 342/1/4
f 341/3/4 339/3/4 342/3/4
f 342/1/4 340/1/4 343/1/4
f 343/1/4 344/1/4 345/1/4
f 345/1/4 344/1/4 346/1/4
f 347/3/4 348/3/4 351/3/4
f 351/3/4 348/3/4 352/3/4
f 349/3/4 350/3/4 353/3/4
f 353/3/4 350/3/4 354/3/4
f 355/1/4 356/1/4 359/1/4
f 359/1/4 356/1/4 360/1/4
f 357/3/4 358/3/4 361/3/4
f 358/1/4 359/1/4 361/1/4
f 361/1/4 359/1/4 362/1/4
f 357/3/4 361/3/4 363/3/4
f 363/3/4 361/3/4 364/3/4
f 365/4/4 366/4/4 367/4/4
f 367/4/4 366/4/4 368/4/4
f 365/4/4 367/4/4 369/4/4
f 369/4/4 367/4/4 370/4/4
f 371/7/4 372/7/4 373/7/4
f 373/7/4 372/7/4 374/7/4
f 375/1/4 376/1/4 377/1/4
f 377/1/4 376/1/4 378/1/4
f 378/6/4 379/6/4 380/6/4
f 380/6/4 379/6/4 381/6/4
f 381/6/4 379/6/4 385/6/4
f 382/2/4 383/2/4 386/2/4
f 386/2/4 383/2/4 387/2/4
f 384/6/4 385/6/4 389/6/4
f 385/6/4 379/6/4 390/6/4
f 389/6/4 385/6/4 390/6/4
f 388/1/4 389/1/4 391/1/4
f 391/1/4 389/1/4 392/1/4
f 393/7/4 394/7/4 395/7/4
f 395/7/4 394/7/4 396/7/4
f 397/1/4 398/1/4 399/1/4
f 399/1/4 398/1/4 400/1/4
f 400/1/4 398/1/4 401/1/4
f 401/1/4 402/1/4 407/1/4
f 407/1/4 402/1/4 408/1/4
f 403/2/4 404/2/4 409/2/4
f 409/2/4 404/2/4 410/2/4
f 405/1/4 406/1/4 411/1/4
f 406/1/4 407/1/4 411/1/4
f 411/1/4 407/1/4 412/1/4
f 413/1/4 414/1/4 417/1/4
f 417/1/4 414/1/4 418/1/4
f 415/2/4 416/2/4 419/2/4
f 419/2/4 416/2/4 420/2/4
f 421/7/4 422/7/4 423/7/4
f 423/7/4 422/7/4 424/7/4
f 424/7/4 422/7/4 426/7/4
f 425/7/4 426/7/4 427/7/4
f 426/7/4 422/7/4 428/7/4
f 427/7/4 426/7/4 428/7/4
f 429/4/4 430/4/4 431/4/4
f 431/4/4 430/4/4 432/4/4
f 433/4/4 434/4/4 435/4/4
f 435/4/4 434/4/4 436/4/4
f 440/4/5 438/4/5 437/4/5
f 441/4/5 438/4/5 440/4/5
f 443/7/5 440/7/5 439/7/5
f 444/3/5 441/3/5 440/3/5
f 444/7/5 440/7/5 443/7/5
f 445/7/5 442/7/5 441/7/5
f 445/3/5 441/3/5 444/3/5
f 446/7/5 442/7/5 445/7/5
f 448/3/5 445/3/5 444/3/5
f 449/3/5 445/3/5 448/3/5
f 454/1/5 448/1/5 447/1/5
f 455/3/5 449/3/5 448/3/5
f 455/1/5 448/1/5 454/1/5
f 456/1/5 450/1/5 449/1/5
f 456/3/5 449/3/5 455/3/5
f 457/1/5 450/1/5 456/1/5
f 462/7/5 452/7/5 451/7/5
f 463/7/5 452/7/5 462/7/5
f 464/1/5 454/1/5 453/1/5
f 465/3/5 457/3/5 456/3/5
f 465/3/5 455/3/5 454/3/5
f 465/1/5 454/1/5 464/1/5
f 465/3/5 456/3/5 455/3/5
f 466/1/5 458/1/5 457/1/5
f 466/3/5 457/3/5 465/3/5
f 467/1/5 458/1/5 466/1/5
f 468/7/5 460/7/5 459/7/5
f 469/7/5 460/7/5 468/7/5
f 471/4/5 462/4/5 461/4/5
f 472/3/5 464/3/5 463/3/5
f 472/4/5 462/4/5 471/4/5
f 472/3/5 467/3/5 466/3/5
f 472/3/5 469/3/5 468/3/5
f 472/3/5 468/3/5 467/3/5
f 472/3/5 463/3/5 462/3/5
f 472/3/5 466/3/5 465/3/5
f 472/3/5 465/3/5 464/3/5
f 473/3/5 469/3/5 472/3/5
f 474/3/5 469/3/5 473/3/5
f 475/3/5 469/3/5 474/3/5
f 476/3/5 469/3/5 475/3/5
f 477/3/5 469/3/5 476/3/5
f 478/3/5 469/3/5 477/3/5
f 479/4/5 470/4/5 469/4/5
f 479/3/5 469/3/5 478/3/5
f 480/4/5 470/4/5 479/4/5
f 481/7/5 473/7/5 472/7/5
f 482/7/5 473/7/5 481/7/5
f 483/1/5 475/1/5 474/1/5
f 484/3/5 476/3/5 475/3/5
f 484/1/5 475/1/5 483/1/5
f 485/3/5 476/3/5 484/3/5
f 486/3/5 476/3/5 485/3/5
f 487/1/5 477/1/5 476/1/5
f 487/3/5 476/3/5 486/3/5
f 488/1/5 477/1/5 487/1/5
f 489/7/5 479/7/5 478/7/5
f 490/7/5 479/7/5 489/7/5
f 491/1/5 485/1/5 484/1/5
f 492/3/5 486/3/5 485/3/5
f 492/1/5 485/1/5 491/1/5
f 493/1/5 487/1/5 486/1/5
f 493/3/5 486/3/5 492/3/5
f 494/1/5 487/1/5 493/1/5
f 496/3/5 493/3/5 492/3/5
f 497/3/5 493/3/5 496/3/5
f 499/7/5 496/7/5 495/7/5
f 500/3/5 497/3/5 496/3/5
f 500/7/5 496/7/5 499/7/5
f 501/7/5 498/7/5 497/7/5
f 501/3/5 497/3/5 500/3/5
f 502/7/5 498/7/5 501/7/5
f 503/4/5 501/4/5 500/4/5
f 504/4/5 501/4/5 503/4/5
f 507/2/5 506/2/5 505/2/5
f 508/2/5 506/2/5 507/2/5
f 511/2/5 510/2/5 509/2/5
f 512/2/5 510/2/5 511/2/5
f 515/2/5 514/2/5 513/2/5
f 516/2/5 514/2/5 515/2/5
f 517/4/6 518/4/6 519/4/6
f 519/4/6 518/4/6 520/4/6
f 521/4/6 522/4/6 525/4/6
f 525/4/6 522/4/6 526/4/6
f 523/4/6 524/4/6 527/4/6
f 527/4/6 524/4/6 528/4/6
f 529/4/6 530/4/6 531/4/6
f 531/4/6 530/4/6 532/4/6
f 533/4/6 534/4/6 535/4/6
f 535/4/6 534/4/6 536/4/6
f 537/3/6 538/3/6 539/3/6
f 539/3/6 538/3/6 540/3/6
f 541/4/6 542/4/6 549/4/6
f 549/4/6 542/4/6 550/4/6
f 543/3/6 544/3/6 551/3/6
f 551/3/6 544/3/6 552/3/6
f 545/3/6 546/3/6 553/3/6
f 553/3/6 546/3/6 554/3/6
f 547/4/6 548/4/6 555/4/6
f 555/4/6 548/4/6 556/4/6
f 557/3/6 558/3/6 559/3/6
f 559/3/6 558/3/6 560/3/6
f 561/4/6 562/4/6 563/4/6
f 563/4/6 562/4/6 564/4/6
f 565/7/6 566/7/6 567/7/6
f 567/7/6 566/7/6 568/7/6
f 569/1/6 570/1/6 572/1/6
f 572/1/6 570/1/6 573/1/6
f 571/1/6 572/1/6 578/1/6
f 578/1/6 572/1/6 579/1/6
f 573/1/6 574/1/6 580/1/6
f 580/1/6 574/1/6 581/1/6
f 577/1/6 578/1/6 586/1/6
f 586/1/6 578/1/6 587/1/6
f 581/1/6 582/1/6 588/1/6
f 588/1/6 582/1/6 589/1/6
f 585/1/6 586/1/6 591/1/6
f 591/1/6 586/1/6 592/1/6
f 589/1/6 590/1/6 595/1/6
f 595/1/6 590/1/6 596/1/6
f 575/7/6 576/7/6 597/7/6
f 597/7/6 576/7/6 598/7/6
f 592/1/6 593/1/6 599/1/6
f 599/1/6 593/1/6 600/1/6
f 594/1/6 595/1/6 603/1/6
f 603/1/6 595/1/6 604/1/6
f 583/7/6 584/7/6 605/7/6
f 605/7/6 584/7/6 606/7/6
f 600/1/6 601/1/6 607/1/6
f 607/1/6 601/1/6 608/1/6
f 602/1/6 603/1/6 609/1/6
f 609/1/6 603/1/6 610/1/6
f 608/1/6 609/1/6 611/1/6
f 611/1/6 609/1/6 612/1/6
f 613/7/6 614/7/6 615/7/6
f 615/7/6 614/7/6 616/7/6
f 617/1/6 618/1/6 619/1/6
f 619/1/6 618/1/6 620/1/6
f 621/1/6 622/1/6 625/1/6
f 625/1/6 622/1/6 626/1/6
f 623/1/6 624/1/6 627/1/6
f 627/1/6 624/1/6 628/1/6
f 629/1/6 630/1/6 631/1/6
f 631/1/6 630/1/6 632/1/6
f 633/6/6 634/6/6 635/6/6
f 635/6/6 634/6/6 636/6/6
f 633/6/6 635/6/6 637/6/6
f 636/6/6 634/6/6 638/6/6
f 633/6/6 637/6/6 639/6/6
f 637/6/6 638/6/6 639/6/6
f 638/6/6 634/6/6 640/6/6
f 639/6/6 638/6/6 640/6/6
f 641/2/6 642/2/6 643/2/6
f 643/2/6 642/2/6 644/2/6
f 645/2/6 646/2/6 647/2/6
f 647/2/6 646/2/6 648/2/6
f 649/3/6 650/3/6 651/3/6
f 651/3/6 650/3/6 652/3/6
f 653/2/6 654/2/6 655/2/6
f 655/2/6 654/2/6 656/2/6
